<svg xmlns="http://www.w3.org/2000/svg" width="360" height="240" viewBox="0 0 360 240"><g style="fill:none;stroke-width:1;stroke:none"><g style="opacity:0.3;stroke-width:3;stroke:#000"><path d="M0 120.5L360 120.5"/><path d="M0 160.5L360 160.5"/><path d="M0 200.5L360 200.5"/><path d="M0 80.5L360 80.5"/><path d="M0 40.5L360 40.5"/></g><path d="M240.9 44.6L339.4 188.4C272.8 168.1 225.5 199 156.9 199L156.4 198.9C156.3 198.9 156.1 198.9 156 198.9 154.7 199 153.4 199 152.1 199 143.4 199 135.1 197.4 127.4 194.5 101.6 188.7 70.5 145.4 36.2 90.9L44.9 86.1 81.8 134.2C81.7 132.3 81.6 130.5 81.6 128.5 81.6 89.6 113.2 58.1 152.1 58.1 191 58.1 222.6 89.6 222.6 128.5 222.6 149.7 213.2 168.7 198.4 181.7 203.1 179.3 207.2 176.7 210 173.9 225.5 158.5 243.8 126.6 240.9 44.6ZM244.1 33.5C245.4 32.6 247.1 32.9 248.1 34.1L248.2 34.3 351.5 185.8C352.4 187.1 352.1 188.9 350.7 189.8 349.5 190.7 347.7 190.4 346.8 189.2L346.7 189 243.4 37.5C242.5 36.2 242.8 34.4 244.1 33.5ZM100.2 102.8C96.3 110.6 94.2 119.3 94.2 128.5 94.2 160.5 120.1 186.5 152.1 186.5L152.5 186.5 100.2 102.8ZM152.1 70.6C133.2 70.6 116.4 79.7 105.8 93.7L122.2 119.8 131.2 114.2 126.6 106.8C122.1 99.6 124.3 90.1 131.5 85.5 138.7 81 148.3 83.2 152.8 90.5L188.6 147.8C193.1 155 190.9 164.5 183.7 169 176.5 173.5 166.9 171.4 162.4 164.1L157.8 156.8 148.8 162.4 163.2 185.4C189.9 180.2 210 156.7 210 128.5 210 96.6 184.1 70.6 152.1 70.6ZM135.3 166.3C137 169 136.1 172.5 133.4 174.2 130.7 175.9 127.1 175.1 125.4 172.4 123.7 169.7 124.6 166.1 127.3 164.4 130 162.7 133.6 163.6 135.3 166.3ZM179.1 143.5L162.7 153.7 167.3 161C170.1 165.6 176.1 166.9 180.6 164.1 185.1 161.3 186.5 155.3 183.7 150.8L179.1 143.5ZM124 148.3C125.7 151 124.9 154.5 122.2 156.2 119.5 157.9 115.9 157.1 114.2 154.4 112.5 151.7 113.3 148.1 116 146.4 118.7 144.7 122.3 145.5 124 148.3ZM146.5 138.7L137.5 144.4 144.7 155.8 153.7 150.2 146.5 138.7ZM167.8 125.4L151.4 135.7 158.6 147.1 175 136.9 167.8 125.4ZM112.8 130.3C114.5 133 113.6 136.5 110.9 138.2 108.2 139.9 104.6 139.1 102.9 136.4 101.2 133.7 102.1 130.1 104.8 128.4 107.5 126.7 111.1 127.5 112.8 130.3ZM135.3 120.7L126.3 126.4 133.4 137.8 142.4 132.2 135.3 120.7ZM156.6 107.4L140.2 117.7 147.4 129.1 163.7 118.9 156.6 107.4ZM134.6 90.5C130 93.3 128.7 99.2 131.5 103.8L136.1 111.1 152.5 100.9 147.9 93.5C145 89 139.1 87.6 134.6 90.5ZM35.2 74.5C38.4 74.5 41 77.1 41 80.3 41 83.5 38.4 86.1 35.2 86.1 32 86.1 29.5 83.5 29.5 80.3 29.5 77.1 32 74.5 35.2 74.5ZM27.3 52.1L33.5 70 25 75.4 12 62 27.3 52.1Z" style="fill-opacity:0.5;fill:#000;opacity:0.5"/></g></svg>
