<?xml version="1.0" encoding="UTF-8"?>
<svg width="640px" height="580px" viewBox="0 0 640 580" version="1.1" xmlns="http://www.w3.org/2000/svg" xmlns:xlink="http://www.w3.org/1999/xlink">
    <g stroke="none" stroke-width="1" fill="none" fill-rule="evenodd">
        <g transform="translate(64.000000, 210.000000)" stroke="#000000" stroke-width="3">
            <path d="M0,80.5 L512,80.5" id="Line"></path>
            <path d="M0,120.5 L512,120.5" id="Line"></path>
            <path d="M0,160.5 L512,160.5" id="Line"></path>
            <path d="M0,40.5 L512,40.5" id="Line"></path>
            <path d="M0,0.5 L512,0.5" id="Line"></path>
        </g>
        <path d="M310,530.5 L386,530.5" id="BottomLedger4" stroke="#000000" stroke-width="3"></path>
        <path d="M310,490.5 L386,490.5" id="BottomLedger3" stroke="#000000" stroke-width="3"></path>
        <path d="M310,450.5 L386,450.5" id="BottomLedger2" stroke="#000000" stroke-width="3"></path>
        <path d="M310,410.5 L386,410.5" id="BottomLedger1" stroke="#000000" stroke-width="3"></path>
        <path d="M310,170.5 L386,170.5" id="TopLedger1" stroke="#000000" stroke-width="3"></path>
        <path d="M310,130.5 L386,130.5" id="TopLedger2" stroke="#000000" stroke-width="3"></path>
        <path d="M310,90.5 L386,90.5" id="TopLedger3" stroke="#000000" stroke-width="3"></path>
        <path d="M310,50.5 L386,50.5" id="TopLedger4" stroke="#000000" stroke-width="3"></path>
        <g id="BassClef" transform="translate(72.000000, 209.000000)" fill="#000000">
            <path d="M110.5,33 C115.746705,33 120,28.7467051 120,23.5 C120,18.2532949 115.746705,14 110.5,14 C105.253295,14 101,18.2532949 101,23.5 C101,28.7467051 105.253295,33 110.5,33 Z M110.5,69 C115.746705,69 120,64.7467051 120,59.5 C120,54.2532949 115.746705,50 110.5,50 C105.253295,50 101,54.2532949 101,59.5 C101,64.7467051 105.253295,69 110.5,69 Z M19.7948026,23.2510146 C20.3248089,25.5108071 22.0469059,27.0872893 24.9610937,27.9804614 C26.4986199,28.4539097 29.3857147,28.9391104 33.6257648,29.439421 C37.8658149,29.9397317 40.6242181,31.7630115 41.8942012,34.915976 C42.5816854,36.5982286 42.9305074,39.3297905 42.9305074,43.1140195 C42.9305074,47.1601561 40.9425606,50.3668452 36.9666669,52.7307291 C33.414101,54.8310266 29.2011438,55.8836936 24.3261022,55.8836936 C18.9227476,55.8836936 14.49474,54.5422567 11.0505459,51.8627405 C7.18133088,48.8675921 5.24757001,44.6115937 5.24757001,39.0947452 C5.24757001,34.0496662 6.22630362,29.0583119 8.18715747,24.1173244 C10.3596752,18.6542006 13.5143131,13.7132131 17.6493779,9.29939852 C20.8277222,5.98861789 25.0406793,3.5458259 30.2899427,1.96934365 C34.6874707,0.656447882 39.7216835,0 45.3942745,0 C49.4751534,0 53.4239541,0.340815653 57.2406765,1.02244696 C67.9982797,2.96828608 76.7696294,8.56404258 83.5530322,17.8113954 C89.7014435,26.167255 92.7731092,35.2064248 92.7731092,44.9272259 C92.7731092,46.2921674 92.6935236,47.6587878 92.5343524,49.0254082 C91.1068915,61.2695883 82.9180407,74.4052615 67.97288,88.4357857 C56.3635415,99.3653911 42.3971145,109.480733 26.0752922,118.783489 C11.7126304,126.979853 3.25962319,130.685174 0.716270446,129.896094 L0,126.822037 C4.18586417,125.351325 8.45131394,123.484394 12.8014293,121.226281 C17.6747776,118.704581 22.4702336,115.759799 27.1877974,112.398652 C35.190384,106.722308 41.5775521,101.467367 46.3459152,96.6338292 C51.9118276,90.9591646 56.2839559,84.9151432 59.4656868,78.5051227 C62.855695,71.619975 65.2940624,63.5293807 66.779096,54.2283033 C67.2024236,51.3892922 67.5190728,48.8810233 67.7341232,46.7001389 C67.9424004,44.5192545 68.0507723,42.2191685 68.0507723,39.8032389 C68.0507723,32.91977 66.9636668,27.0872893 64.7911491,22.3057968 C62.4594602,17.1566264 58.7477231,13.0567652 53.6610176,10.009571 C51.5409925,8.69667527 49.3295287,7.73634742 47.0232395,7.13194528 C44.7186435,6.52922203 42.4529938,6.22534207 40.2279834,6.22534207 C36.7279101,6.22534207 33.3345154,6.88346884 30.0511858,8.19636461 C27.24029,9.29939852 24.9356941,10.6928812 23.1357047,12.373455 C20.641458,14.6869721 19.3985679,17.2607178 19.3985679,20.0980501 C19.3985679,20.9929011 19.5306462,22.0422104 19.7948026,23.2510146" id="Fill-1"></path>
        </g>
        <g id="TrebleClef" transform="translate(74.000000, 165.000000)" fill="#000000">
            <path d="M62.2259479,0 C66.3461114,0 70.3452761,5.10604616 74.223442,15.3196705 C77.8580591,24.8622932 79.674592,33.563866 79.674592,41.4274528 C79.674592,47.9000136 79.0695982,54.158099 77.8596104,60.1986451 C76.2602548,68.2077688 73.6960115,75.447845 70.1606754,81.9204058 C65.8497062,89.8314836 60.1612124,96.6165657 53.0920915,102.27412 L57.6807374,126.008885 C60.5940157,125.578403 63.3614749,125.362395 65.9831151,125.362395 C74.479401,125.362395 81.7625966,127.638898 87.8311506,132.194968 C93.1721607,136.22251 97.2752603,141.71308 100.140449,148.665146 C102.712449,154.947743 104,161.636311 104,168.732382 C104,177.602472 101.086722,185.22554 95.2601653,191.603118 C89.6275171,197.740178 82.1985024,201.839722 72.9746726,203.90175 L79.3115957,239.072649 C79.4558635,239.694628 79.5535933,240.354906 79.6016825,241.050419 C79.6497718,241.7444 79.674592,242.525703 79.674592,243.3882 C79.674592,249.764247 77.2220399,255.398822 72.3184869,260.290393 C67.706572,264.893954 61.952925,267.960952 55.0590973,269.495983 C53.5528176,269.831484 51.9503595,270 50.2517228,270 C43.5518033,270 37.5065183,267.265439 32.1174189,261.800912 C27.0199576,256.621332 24.4696757,251.251787 24.4696757,245.689215 C24.4696757,244.826718 24.5425852,243.9872 24.6884043,243.172193 C25.5633185,238.760128 27.6125414,235.176857 30.842278,232.419316 C34.0720146,229.661776 37.9191552,228.284537 42.385251,228.284537 C46.8528982,228.284537 50.7000388,229.75829 53.9297754,232.707326 C57.1579607,235.656363 58.772829,239.288657 58.772829,243.604208 C58.772829,248.109723 57.2541392,252.030027 54.2214134,255.363587 C51.1855852,258.695615 47.3384446,260.362395 42.6768891,260.362395 L40.201068,260.362395 C42.3371618,262.327909 44.5461651,263.813917 46.8296292,264.821951 C49.1099908,265.828454 51.3438143,266.332471 53.5295486,266.332471 C54.207452,266.332471 54.9970466,266.283448 55.8952299,266.186934 C56.7934131,266.09042 58.6502789,265.371928 61.4673787,264.029924 C65.5937472,262.062879 68.8963933,259.66535 71.3722144,256.835807 C74.7694878,252.952271 76.471227,248.443692 76.471227,243.313134 C76.471227,241.874617 76.3300618,240.315075 76.0523851,238.637571 L69.8798962,205.203922 C67.3078965,205.727855 64.8801647,206.074079 62.5998031,206.241064 C60.3194415,206.406516 57.5768026,206.492306 54.3749888,206.492306 C39.7682647,206.492306 27.0540855,201.144209 16.2309,190.452611 C5.40926583,179.759481 0,166.981344 0,152.116668 C0,143.871621 3.80991021,133.77749 11.4343844,121.837339 C16.9196623,113.206237 23.3769366,105.637605 32.3106796,96 C39.5938752,88.1364132 41.8035261,86.0739414 45.5572949,82.557966 C44.7801105,80.7364572 43.5874825,75.9273507 42.2037529,68.8297474 C40.8200233,61.733676 39.8613407,56.0516103 39.327705,51.7835501 C39.1322455,50.299074 39.0360669,48.5235242 39.0360669,46.4614966 C39.0360669,36.3918772 41.313326,26.3483012 45.8693953,16.3261728 C50.8132812,5.44154695 56.2659825,0 62.2259479,0 Z M49.796537,105.236297 C48.0915562,106.431778 44.8046022,109.596824 39.9341181,114.73449 C35.063634,119.869103 31.3391461,124.087638 28.7590974,127.383989 C25.7882267,131.159754 23.2798028,134.695811 21.2353828,137.993689 C18.7518719,142.053438 16.8273456,146.044481 15.4633609,149.962237 C13.9063007,154.454069 13.1262136,158.828337 13.1262136,163.080462 C13.1262136,166.662324 13.6618423,170.247239 14.7346567,173.830628 C15.5131868,176.363581 17.3910013,179.516413 20.3634291,183.293705 C24.3588455,188.405415 29.0128982,192.561352 34.3255875,195.763041 C41.1968939,199.922032 48.5555601,202 56.4015862,202 C58.7885594,202 60.9092753,201.784722 62.7621769,201.355692 C63.6388017,201.163316 65.4652333,200.590768 68.2445856,199.634994 L68.2445856,199.634994 L56.4031432,142.00458 L55.9139613,142.072075 C48.4497456,143.161651 42.6679182,146.765323 38.5670193,152.884523 C35.2520382,157.799277 33.5953262,162.97664 33.5953262,168.416612 C33.5953262,172.711487 35.3734889,176.934602 38.9313714,181.085959 C41.8072614,184.426587 45.4616816,187.385516 49.8961889,189.962746 C53.7950675,192.204082 56.6958705,193.326276 58.5954839,193.326276 L58.5954839,193.326276 L58.5954839,194.831696 L58.2936436,194.798703 C55.8498662,194.500922 52.7088001,193.391134 48.8732004,191.46664 C43.9015073,188.985597 39.6865455,185.977811 36.2267579,182.444806 C31.7922506,177.908698 29.0128982,172.945086 27.893372,167.550919 C27.4060122,165.30653 27.1615537,162.944577 27.1615537,160.462008 C27.1615537,152.49061 29.6341652,145.352842 34.5793883,139.051758 C39.5246113,132.750674 45.9910821,128.646649 53.9819147,126.736628 L53.9819147,126.736628 Z M64.5165165,141.645325 C63.9808878,141.645325 63.4810715,141.65754 63.0186247,141.680442 C62.5546207,141.706397 61.5923576,141.813273 60.1302781,142.004122 L60.1302781,142.004122 L71.545086,197.912311 L72.1097955,197.776971 C78.4753917,196.195401 83.6698689,192.991494 87.6917997,188.16525 C91.8320226,183.194005 93.9029126,177.459362 93.9029126,170.961321 C93.9029126,169.862029 93.8312879,168.739834 93.6849242,167.593211 C92.8067423,160.090539 89.5540436,153.890223 83.9252712,148.992264 C78.2964988,144.094305 71.8269139,141.645325 64.5165165,141.645325 Z M63.3470087,19 C59.9354899,19 56.3542515,22.7040053 52.6017366,30.1104891 C49.1403919,36.9444247 46.6553239,44.4226678 45.1449756,52.5467454 C44.9986119,53.2628124 44.9254301,54.2674436 44.9254301,55.5575856 C44.9254301,59.1409741 45.2788827,63.6694488 45.985788,69.1399562 C46.6911363,74.6135172 47.465496,78.9139791 48.0992195,80.7293386 C53.6669327,75.5121172 57.4094193,71.8047229 59.3266794,69.6071556 C63.0791943,65.2588427 66.099891,60.8372436 68.3918835,56.345412 C71.5589438,50.1344089 73.1440311,44.2073897 73.1440311,38.5689348 C73.1440311,37.7566797 73.1175611,36.9322103 73.0692922,36.0955265 C73.0210233,35.2603695 72.9229285,34.4359 72.7781219,33.623645 C71.9482089,28.5104077 71.2179477,25.2613873 70.5842242,23.8735305 C69.1221447,20.6245102 66.7102586,19 63.3470087,19 Z" id="Combined-Shape"></path>
        </g>
        <g id="UpNote" transform="translate(326.000000, 150.000000)" fill="#000000">
            <path d="M40,0 L44,0 L44,134 C44,138.204923 42.6779034,141.95309 40.0337103,146.357143 C37.3887348,150.762796 34.0834934,154.1672 30.1164213,156.569556 C27.7663751,157.971464 25.3787782,159.060681 22.9551952,159.836409 C20.53083,160.612136 18.1674845,161 15.8667236,161 C13.4173245,161 11.1650665,160.549758 9.10838489,159.648475 C7.05170329,158.747191 5.16556433,157.346883 3.45231491,155.443552 C2.2772918,154.092026 1.4073679,152.640536 0.844890122,151.088281 C0.280847735,149.536826 0,147.859015 0,146.057248 C0,142.001873 1.32209658,137.960092 3.96628974,133.929508 C6.6112652,129.900523 9.89147287,126.709643 13.810042,124.35607 C16.1600882,122.954962 18.5476851,121.877741 20.971268,121.126804 C23.3956333,120.375868 25.8074817,120 28.2075955,120 C30.8510063,120 33.2503378,120.476633 35.4055899,121.427499 C37.1245359,122.186786 38.6562378,123.370964 40.0014904,124.835329 L40,0 Z" id="Path"></path>
        </g>
        <g id="DownNote" transform="translate(326.000000, 270.000000)" fill="#000000">
            <path d="M28.1332764,0 C30.5826755,0 32.8349335,0.450241866 34.8916151,1.35152532 C36.9482967,2.25280877 38.8344357,3.65311695 40.5476851,5.55644847 C41.7227082,6.90797378 42.5926321,8.35946399 43.1551099,9.91171881 C43.7191523,11.4631739 44,13.1409846 44,14.9427518 C44,18.9981275 42.6779034,23.0399079 40.0337103,27.0704923 C37.3887348,31.0994773 34.1085271,34.2903566 30.189958,36.6439299 C27.8399118,38.0450378 25.4523149,39.1222595 23.028732,39.8731958 C20.6043667,40.624132 18.1925183,41 15.7924045,41 C13.1489937,41 10.7496622,40.5233674 8.59441007,39.5725014 C6.87585648,38.8133872 5.34446143,37.6295762 3.99943083,36.1656733 L4,161 L0,161 L0,27 C0,22.7950769 1.32209658,19.0469104 3.96628974,14.6428571 C6.6112652,10.2372045 9.91650665,6.83280019 13.8835787,4.43044394 C16.2336249,3.02853632 18.6212218,1.93931887 21.0448048,1.16359132 C23.46917,0.387863775 25.8325155,0 28.1332764,0 Z" id="Path"></path>
        </g>
        <g id="Sharp" transform="translate(260.000000, 270.000000)" fill="#000000">
            <rect id="Rectangle" x="7" y="7" width="5" height="114"></rect>
            <rect id="Rectangle" x="23" y="0" width="5" height="115"></rect>
            <polygon id="Rectangle" points="0 37 36 24 36 41 0 54"></polygon>
            <polygon id="Rectangle" points="0 80 36 67 36 84 0 97"></polygon>
        </g>
        <g id="Flat" transform="translate(264.000000, 150.000000)" fill="#000000">
            <path d="M4,67.5729702 L4,98.1880781 C4.23733893,98.3807811 5.88045458,96.885406 8.92858625,93.7011819 C12.3570688,90.0822199 15.2370854,86.438592 17.5709181,82.7718397 C20.6662133,77.8979959 22.2134806,73.7972765 22.2134806,70.4681398 C22.2134806,68.827852 21.8924644,67.4049332 21.2496715,66.1978417 C20.6068786,64.9922919 19.4992969,63.9301131 17.9284479,63.0128469 C17.5001729,62.7723535 17.0589659,62.5788798 16.6071091,62.4339671 C16.1537309,62.2898253 15.5946152,62.217369 14.9282405,62.217369 C13.5468062,62.217369 12.0946267,62.5549846 10.5709412,63.2302158 C8.57105645,64.0989209 6.38023559,65.5465057 4,67.5729702 L4,67.5729702 Z M4.28579332,63.4475848 C6.52301699,62.0971223 8.35706876,61.1073998 9.78566654,60.4799589 C14.1178627,58.5020555 17.9753809,57.512333 21.3566999,57.512333 C23.9750352,57.512333 26.1422743,58.0904419 27.8568959,59.2466598 C29.9039441,60.6441418 31.4032872,62.8355601 32.3564464,65.8216855 C32.7854821,67.2669579 33,68.7345838 33,70.2268756 C33,75.0922405 30.6661672,80.0524152 25.9992623,85.1097122 C22.5236163,88.8666495 2.76134713,104.350719 3.55271368e-15,107 L3.55271368e-15,67 L4.28579332,63.4475848 Z" id="Fill-1"></path>
            <rect id="Rectangle" x="0" y="0" width="4" height="98"></rect>
        </g>
    </g>
</svg>